<?xml version="1.0" encoding="UTF-8" standalone="no"?>
<!-- Generator: Adobe Illustrator 18.0.0, SVG Export Plug-In . SVG Version: 6.00 Build 0)  -->

<svg
   xmlns:dc="http://purl.org/dc/elements/1.1/"
   xmlns:cc="http://creativecommons.org/ns#"
   xmlns:rdf="http://www.w3.org/1999/02/22-rdf-syntax-ns#"
   xmlns:svg="http://www.w3.org/2000/svg"
   xmlns="http://www.w3.org/2000/svg"
   xmlns:xlink="http://www.w3.org/1999/xlink"
   xmlns:sodipodi="http://sodipodi.sourceforge.net/DTD/sodipodi-0.dtd"
   xmlns:inkscape="http://www.inkscape.org/namespaces/inkscape"
   version="1.1"
   id="Layer_1"
   x="0px"
   y="0px"
   viewBox="0 0 149 42"
   enable-background="new 0 0 149 42"
   xml:space="preserve"
   sodipodi:docname="dhlogo.svg"
   inkscape:version="0.92.3 (2405546, 2018-03-11)"><metadata
   id="metadata3932"><rdf:RDF><cc:Work
       rdf:about=""><dc:format>image/svg+xml</dc:format><dc:type
         rdf:resource="http://purl.org/dc/dcmitype/StillImage" /></cc:Work></rdf:RDF></metadata><defs
   id="defs3930" /><sodipodi:namedview
   pagecolor="#ffffff"
   bordercolor="#666666"
   borderopacity="1"
   objecttolerance="10"
   gridtolerance="10"
   guidetolerance="10"
   inkscape:pageopacity="0"
   inkscape:pageshadow="2"
   inkscape:window-width="640"
   inkscape:window-height="480"
   id="namedview3928"
   showgrid="false"
   inkscape:zoom="1.9261745"
   inkscape:cx="74.5"
   inkscape:cy="21"
   inkscape:window-x="1199"
   inkscape:window-y="181"
   inkscape:window-maximized="0"
   inkscape:current-layer="Layer_1" />
<rect
   x="3.3"
   y="2.6"
   fill="#FFFFFF"
   width="38.9"
   height="37.8"
   id="rect3829" />
<g
   id="g3861">
	<g
   id="g3839">
		<defs
   id="defs3832">
			<rect
   id="SVGID_1_"
   x="2.8"
   y="2.1"
   width="146.2"
   height="54.7" />
		</defs>
		<clipPath
   id="SVGID_2_">
			<use
   xlink:href="#SVGID_1_"
   overflow="visible"
   id="use3834" />
		</clipPath>
		<path
   clip-path="url(#SVGID_2_)"
   d="M11.6,33.4c0,0-1.7-1.2-2.7-1.7l0-1.6l-0.8-1.4c0,0,0.7-1.9,0.8-3.3c0.4-1.7,1.2-6.6,1.2-6.6    l-0.8-2l3.6-3.7c0,0-2.9-0.2-7.8,0.4c0,0,2.8-2.6,10.3-3.8c-2-1.2-7-2.5-7-2.5C16.1,6,21.8,8.4,21.8,8.4C22.1,8,18,4.5,18,4.5    c6.3,1,9.6,4.6,9.6,4.6c0.2-1.7-0.9-4.2-0.9-4.2c4.4,2.6,5.2,6.9,5.2,6.9c0.7-1,0.6-4.2,0.6-4.2c0.7,0.8,1.5,1.7,2.1,3.9    c0.4,1.5,0.4,4.2,0.4,4.2c0.9-0.9,1.6-3.4,1.6-3.4c0.6,1.1,1.1,2.7,0.9,5.1c-0.1,1.3-0.7,3.4-0.7,3.4c0.9-0.5,2.1-2.7,2.1-2.7    c0.8,4.9-1.2,8.7-1.2,8.7c1-0.3,2.4-2.9,2.4-2.9c0.2,6-2.4,9.7-2.4,9.7c1.2-0.7,2.4-2.8,2.4-2.8c0,3.5-1,6.5-1.7,8.2    c0,0-0.3,0.9-0.5,1.3h-5.6c0.1-0.3,0.4-1.3,0.4-1.3c2.2-6.6,1.5-18.2-4.6-23.5c-0.4-0.3,8.4,10.3,2.7,24.8l-19.8,0    c0,0,7.7-2.8,9.2-12.3c0.2-1.3-0.2-2.8-0.7-3.4c0.7-0.7,1.3-1,1.8-2.7c0.5-1.4,0.4-3.7-0.9-4.8c0,0,1.2,1.5,0.3,4.3    c-0.4,1.2-1.3,2-2.2,2.5l-1.3,1.1c0,0-0.5,0.2-0.8,1.8c0,0-0.5,1.3,0.1,2.4c0.1,0.2,0.7,1,0.3,1.4c-0.2,0.3-0.5,1.2-1.3,1.9    c-0.4,0.4-1,0.6-1.7,0.9c-0.1,0-0.2,0-0.3-0.1c0.3-0.6,0.8-2.4,0.3-3.2c0,0-0.8,0.1-1.8,1.8c-0.2,0.4-0.4,1.2-0.4,1.2L11.6,33.4z     M10,29.2c0,0.1,0,0.2,0.1,0.3c0.2,0.5,0.7,0.8,1.3,0.7c0.5-0.2,0.8-0.8,0.6-1.3c-0.1-0.4-0.4-0.6-0.8-0.7l-0.1,0    c0.2,0.2,0.3,0.3,0.4,0.5c0.2,0.5,0,1-0.4,1.1C10.7,29.9,10.2,29.7,10,29.2L10,29.2z M13.7,19.5c1.1-1.9,1.2-2.1,0.8-2.4    c-0.2-0.1-0.4,0.2-1.1,0.8c-0.5,0.5-0.8,0.7-1.3,1.3C13,19.9,13.5,19.9,13.7,19.5"
   id="path3837" />
	</g>
	<g
   id="g3849">
		<defs
   id="defs3842">
			<rect
   id="SVGID_3_"
   x="2.8"
   y="2.1"
   width="146.2"
   height="54.7" />
		</defs>
		<clipPath
   id="SVGID_4_">
			<use
   xlink:href="#SVGID_3_"
   overflow="visible"
   id="use3844" />
		</clipPath>
		
			<rect
   x="3.4"
   y="2.8"
   clip-path="url(#SVGID_4_)"
   fill="none"
   stroke="#FFFFFF"
   stroke-width="1.036"
   stroke-miterlimit="3.864"
   width="38.6"
   height="37.4"
   id="rect3847" />
	</g>
	<g
   id="g3859">
		<defs
   id="defs3852">
			<rect
   id="SVGID_5_"
   x="2.8"
   y="2.1"
   width="146.2"
   height="54.7" />
		</defs>
		<clipPath
   id="SVGID_6_">
			<use
   xlink:href="#SVGID_5_"
   overflow="visible"
   id="use3854" />
		</clipPath>
		<path
   clip-path="url(#SVGID_6_)"
   d="M7.3,36.8c0,0.1,0,0.2-0.1,0.3c-0.1,0.1-0.2,0.1-0.3,0.1H6.6v-0.7h0.2c0.1,0,0.2,0,0.2,0    C7.2,36.6,7.3,36.7,7.3,36.8 M7.6,38.2c0-0.1-0.2-0.3-0.3-0.4c-0.1-0.1-0.1-0.2-0.2-0.2c0,0-0.1-0.1-0.2-0.2    c0.3,0,0.5-0.2,0.5-0.5c0-0.2-0.1-0.3-0.2-0.4c-0.1-0.1-0.2-0.1-0.5-0.1H6.4v1.9h0.3v-0.8c0.1,0,0.1,0,0.2,0.1    C7,37.6,7,37.7,7.1,37.9c0.1,0.1,0.1,0.2,0.2,0.3H7.6z M8.3,37.3c0,0.8-0.6,1.5-1.4,1.5c-0.8,0-1.4-0.6-1.4-1.5    c0-0.8,0.6-1.5,1.4-1.5C7.7,35.8,8.3,36.4,8.3,37.3 M8.6,37.3c0-1-0.8-1.7-1.7-1.7c-0.9,0-1.7,0.7-1.7,1.7c0,1,0.8,1.7,1.7,1.7    C7.8,39,8.6,38.3,8.6,37.3"
   id="path3857" />
	</g>
</g>
<polygon
   fill="#FFFFFF"
   points="70.2,23.5 64.4,39.9 57.5,39.9 59.7,33.7 55.9,33.7 53.8,39.9 46.8,39.9 51.8,26.2 47.7,23.5   59.5,23.5 57.3,29.8 61.1,29.8 63.4,23.5 "
   id="polygon3863"
   style="fill:#000000" />
<g
   id="g3895"
   style="fill:#000000">
	<g
   id="g3873"
   style="fill:#000000">
		<defs
   id="defs3866">
			<rect
   id="SVGID_7_"
   x="2.8"
   y="2.1"
   width="146.2"
   height="54.7" />
		</defs>
		<clipPath
   id="SVGID_8_">
			<use
   xlink:href="#SVGID_7_"
   overflow="visible"
   id="use3868" />
		</clipPath>
		<path
   clip-path="url(#SVGID_8_)"
   fill="#FFFFFF"
   d="M82.3,27.8c0.1-0.1,0.1-0.3,0.1-0.4c0-0.7-0.7-1.1-2-1.2c-0.4,0-0.7,0.2-1,0.3    c-0.8,0.5-1.3,1.2-1.5,2.4l-2.3,6.7c-0.1,0.2-0.1,0.3-0.1,0.4c0,0.7,0.7,1.1,2,1.2c0.4,0,0.7-0.1,1-0.3c0.8-0.5,1.3-1.2,1.5-2.4    L82.3,27.8z M88.4,30L87,34.3c-0.9,2.6-2.7,4.4-5.5,5.4c-1.2,0.4-2.5,0.7-3.9,0.8c-1.7,0-3.1-0.2-4.3-0.6    c-2.9-0.8-4.3-2.3-4.3-4.4c0-0.6,0.1-1.2,0.4-2l1.5-4.3c0.9-2.6,2.7-4.4,5.5-5.5c1.2-0.4,2.5-0.7,3.9-0.8c1.7,0.1,3.1,0.2,4.3,0.6    c2.9,0.8,4.3,2.3,4.3,4.4C88.8,28.6,88.7,29.3,88.4,30"
   id="path3871"
   style="fill:#000000" />
	</g>
	<g
   id="g3883"
   style="fill:#000000">
		<defs
   id="defs3876">
			<rect
   id="SVGID_9_"
   x="2.8"
   y="2.1"
   width="146.2"
   height="54.7" />
		</defs>
		<clipPath
   id="SVGID_10_">
			<use
   xlink:href="#SVGID_9_"
   overflow="visible"
   id="use3878" />
		</clipPath>
		<path
   clip-path="url(#SVGID_10_)"
   fill="#FFFFFF"
   d="M102.4,28.7c0-0.4-0.1-0.7-0.4-0.9c-0.3-0.2-0.7-0.3-1.2-0.3H99l-1,3h2    c0.7,0,1.2-0.1,1.5-0.2c0.3-0.1,0.5-0.4,0.7-0.7C102.3,29.1,102.4,28.9,102.4,28.7 M108.3,29.9c-0.2,1-0.9,1.9-2,2.9    c-0.9,0.7-2.1,1.2-3.5,1.4l2.3,5.7h-6.3l-2.2-5.6l-2,5.6h-6.9l4.9-13.7l-4-2.7h14c2,0,3.6,0.5,5,1.6c0.7,0.8,1.1,1.8,1.1,3    C108.6,28.7,108.5,29.3,108.3,29.9"
   id="path3881"
   style="fill:#000000" />
	</g>
	<g
   id="g3893"
   style="fill:#000000">
		<defs
   id="defs3886">
			<rect
   id="SVGID_11_"
   x="2.8"
   y="2.1"
   width="146.2"
   height="54.7" />
		</defs>
		<clipPath
   id="SVGID_12_">
			<use
   xlink:href="#SVGID_11_"
   overflow="visible"
   id="use3888" />
		</clipPath>
		<path
   clip-path="url(#SVGID_12_)"
   fill="#FFFFFF"
   d="M128.6,28.6h-6.7l0.3-0.9c0.1-0.2,0.1-0.3,0.1-0.4c0-0.7-0.7-1.1-2-1.2    c-0.8,0-1.2,0.3-1.4,1c-0.1,0.6,0.5,1.2,1.8,1.8c2.5,1.2,3.7,1.9,3.9,1.9c1.4,0.9,2.1,1.9,2.1,3.1c0,0.4-0.1,0.8-0.2,1.2    c-0.6,2.2-2.2,3.7-5,4.6c-1.1,0.4-2.5,0.6-3.9,0.7c-3.3,0-5.6-0.6-7-1.8c-1-0.9-1.5-2-1.5-3.4c0-0.4,0-0.7,0.1-1.1h6.8l-0.5,1.4    c-0.1,0.1-0.1,0.3-0.1,0.4c0,0.7,0.7,1.1,2,1.2c0.9,0,1.6-0.4,2-1.3c0.1-0.2,0.1-0.4,0.1-0.5c0-0.6-0.7-1.2-2.2-1.8    c-2.3-1-3.6-1.6-4-1.8c-1.4-0.9-2.2-1.9-2.2-3.2c0-0.5,0.1-0.9,0.3-1.5c0.5-1.7,2-3,4.7-3.7c1.1-0.3,2.4-0.5,3.9-0.5    c3.3,0,5.6,0.6,7,1.8c1,0.9,1.5,2,1.5,3.4C128.7,28.2,128.6,28.4,128.6,28.6"
   id="path3891"
   style="fill:#000000" />
	</g>
</g>
<polygon
   fill="#FFFFFF"
   points="128.8,23.5 132.8,26.2 127.9,39.9 143.2,39.9 144.6,36 136.2,36 136.9,33.8 141.4,33.8 142.8,29.9   138.3,29.9 139.2,27.4 147.6,27.4 149,23.5 "
   id="polygon3897"
   style="fill:#000000" />
<g
   id="g3909"
   style="fill:#000000">
	<g
   id="g3907"
   style="fill:#000000">
		<defs
   id="defs3900">
			<rect
   id="SVGID_13_"
   x="2.8"
   y="2.1"
   width="146.2"
   height="54.7" />
		</defs>
		<clipPath
   id="SVGID_14_">
			<use
   xlink:href="#SVGID_13_"
   overflow="visible"
   id="use3902" />
		</clipPath>
		<path
   clip-path="url(#SVGID_14_)"
   fill="#FFFFFF"
   d="M63,7c0.1-0.2,0.1-0.3,0.1-0.4c0-0.7-0.7-1.1-2-1.2h-0.8l-3.5,9.8h1.6    c0.4,0,0.7-0.2,1.1-0.3c0.8-0.5,1.3-1.2,1.5-2.4L63,7z M69.1,9.1L68,12.3c-0.9,2.6-2.8,4.4-5.5,5.4c-1.1,0.4-2.4,0.7-3.8,0.8h-9.9    l4.9-13.7l-4-2.7h11.8c1.6,0.1,2.9,0.3,4.1,0.7c2.7,0.8,4,2.3,4,4.3C69.5,7.8,69.4,8.4,69.1,9.1"
   id="path3905"
   style="fill:#000000" />
	</g>
</g>
<path
   fill="#FFFFFF"
   d="M80.3,7.8L80,14.6h-4L80.3,7.8z M71.7,2.1l4.1,2.7l-9.3,13.7h7.1l1.1-1.8h5l0,1.8H87L86.5,2.1H71.7z"
   id="path3911"
   style="fill:#000000" />
<g
   id="g3923"
   style="fill:#000000">
	<g
   id="g3921"
   style="fill:#000000">
		<defs
   id="defs3914">
			<rect
   id="SVGID_15_"
   x="2.8"
   y="2.1"
   width="146.2"
   height="54.7" />
		</defs>
		<clipPath
   id="SVGID_16_">
			<use
   xlink:href="#SVGID_15_"
   overflow="visible"
   id="use3916" />
		</clipPath>
		<path
   clip-path="url(#SVGID_16_)"
   fill="#FFFFFF"
   d="M103.3,7.3c0-0.4-0.1-0.7-0.4-0.9c-0.3-0.2-0.7-0.3-1.2-0.3H100l-1,3h2    c0.7,0,1.2-0.1,1.5-0.2c0.3-0.1,0.5-0.4,0.7-0.7C103.2,7.8,103.3,7.5,103.3,7.3 M109.3,8.5c-0.2,1-0.9,1.9-2,2.9    c-0.9,0.7-2.1,1.2-3.5,1.4l2.3,5.7h-6.3L97.5,13l-2,5.6h-6.9l4.9-13.7l-4-2.7h14c2,0,3.6,0.5,5,1.6c0.7,0.8,1.1,1.8,1.1,3    C109.6,7.3,109.5,7.9,109.3,8.5"
   id="path3919"
   style="fill:#000000" />
	</g>
</g>
<polygon
   fill="#FFFFFF"
   points="125.2,2.1 119,8.7 121.4,2.1 109.5,2.1 113.6,4.8 108.7,18.5 115.6,18.5 118.3,10.8 120.1,18.5   127,18.5 124.9,10.6 132.8,2.1 "
   id="polygon3925"
   style="fill:#000000" />
</svg>