<?xml version="1.0" encoding="UTF-8" standalone="no"?>
<!-- Created with Inkscape (http://www.inkscape.org/) -->

<svg
   xmlns:dc="http://purl.org/dc/elements/1.1/"
   xmlns:cc="http://creativecommons.org/ns#"
   xmlns:rdf="http://www.w3.org/1999/02/22-rdf-syntax-ns#"
   xmlns:svg="http://www.w3.org/2000/svg"
   xmlns="http://www.w3.org/2000/svg"
   xmlns:sodipodi="http://sodipodi.sourceforge.net/DTD/sodipodi-0.dtd"
   xmlns:inkscape="http://www.inkscape.org/namespaces/inkscape"
   width="2000"
   height="291"
   id="svg3009"
   version="1.1"
   inkscape:version="0.92.3 (2405546, 2018-03-11)"
   sodipodi:docname="Doctor_Who_2018.svg">
  <defs
     id="defs3011">
    <inkscape:perspective
       sodipodi:type="inkscape:persp3d"
       inkscape:vp_x="0 : 27.806 : 1"
       inkscape:vp_y="0 : 1000 : 0"
       inkscape:vp_z="187.086 : 27.806 : 1"
       id="perspective2863"
       inkscape:persp3d-origin="93.542999 : 18.537333 : 1" />
    <inkscape:perspective
       sodipodi:type="inkscape:persp3d"
       inkscape:vp_x="0 : 526.18109 : 1"
       inkscape:vp_y="0 : 1000 : 0"
       inkscape:vp_z="744.09448 : 526.18109 : 1"
       id="perspective2950"
       inkscape:persp3d-origin="372.04724 : 350.78739 : 1" />
    <inkscape:perspective
       sodipodi:type="inkscape:persp3d"
       inkscape:vp_x="0 : 526.18109 : 1"
       inkscape:vp_y="0 : 1000 : 0"
       inkscape:vp_z="744.09448 : 526.18109 : 1"
       id="perspective2740"
       inkscape:persp3d-origin="372.04724 : 350.78739 : 1" />
    <inkscape:perspective
       sodipodi:type="inkscape:persp3d"
       inkscape:vp_x="0 : 526.18109 : 1"
       inkscape:vp_y="0 : 1000 : 0"
       inkscape:vp_z="744.09448 : 526.18109 : 1"
       id="perspective2576"
       inkscape:persp3d-origin="372.04724 : 350.78739 : 1" />
    <inkscape:perspective
       sodipodi:type="inkscape:persp3d"
       inkscape:vp_x="0 : 526.18109 : 1"
       inkscape:vp_y="0 : 1000 : 0"
       inkscape:vp_z="744.09448 : 526.18109 : 1"
       id="perspective2526"
       inkscape:persp3d-origin="372.04724 : 350.78739 : 1" />
    <inkscape:perspective
       sodipodi:type="inkscape:persp3d"
       inkscape:vp_x="0 : 526.18109 : 1"
       inkscape:vp_y="0 : 1000 : 0"
       inkscape:vp_z="744.09448 : 526.18109 : 1"
       id="perspective2461"
       inkscape:persp3d-origin="372.04724 : 350.78739 : 1" />
    <inkscape:perspective
       sodipodi:type="inkscape:persp3d"
       inkscape:vp_x="0 : 526.18109 : 1"
       inkscape:vp_y="0 : 1000 : 0"
       inkscape:vp_z="744.09448 : 526.18109 : 1"
       id="perspective2615"
       inkscape:persp3d-origin="372.04724 : 350.78739 : 1" />
    <inkscape:perspective
       sodipodi:type="inkscape:persp3d"
       inkscape:vp_x="0 : 526.18109 : 1"
       inkscape:vp_y="0 : 1000 : 0"
       inkscape:vp_z="744.09448 : 526.18109 : 1"
       id="perspective2546"
       inkscape:persp3d-origin="372.04724 : 350.78739 : 1" />
    <inkscape:perspective
       sodipodi:type="inkscape:persp3d"
       inkscape:vp_x="0 : 27.806 : 1"
       inkscape:vp_y="0 : 1000 : 0"
       inkscape:vp_z="187.086 : 27.806 : 1"
       id="perspective2485"
       inkscape:persp3d-origin="93.542999 : 18.537333 : 1" />
    <inkscape:perspective
       sodipodi:type="inkscape:persp3d"
       inkscape:vp_x="0 : 526.18109 : 1"
       inkscape:vp_y="0 : 1000 : 0"
       inkscape:vp_z="744.09448 : 526.18109 : 1"
       id="perspective10"
       inkscape:persp3d-origin="372.04724 : 350.78739 : 1" />
  </defs>
  <sodipodi:namedview
     id="base"
     pagecolor="#ffffff"
     bordercolor="#666666"
     borderopacity="1.0"
     inkscape:pageopacity="0.0"
     inkscape:pageshadow="2"
     inkscape:zoom="0.45878284"
     inkscape:cx="990.4196"
     inkscape:cy="327.74342"
     inkscape:document-units="px"
     inkscape:current-layer="layer1"
     showgrid="false"
     fit-margin-top="0"
     fit-margin-left="0"
     fit-margin-right="0"
     fit-margin-bottom="0"
     inkscape:window-width="1305"
     inkscape:window-height="1026"
     inkscape:window-x="2358"
     inkscape:window-y="47"
     inkscape:window-maximized="0">
    <inkscape:grid
       type="xygrid"
       id="grid3039"
       empspacing="5"
       visible="true"
       enabled="true"
       snapvisiblegridlinesonly="true"
       originx="662"
       originy="590.51283"
       spacingx="1"
       spacingy="1" />
  </sodipodi:namedview>
  <metadata
     id="metadata3014">
    <rdf:RDF>
      <cc:Work
         rdf:about="">
        <dc:format>image/svg+xml</dc:format>
        <dc:type
           rdf:resource="http://purl.org/dc/dcmitype/StillImage" />
        <dc:title />
      </cc:Work>
    </rdf:RDF>
  </metadata>
  <g
     inkscape:label="Layer 1"
     inkscape:groupmode="layer"
     id="layer1"
     transform="translate(662,-1351.875)">
    <path
       style="fill:#efcc31;fill-opacity:1;stroke:none;stroke-opacity:1"
       d="m -557.53955,1400.875 5.73451,19.5 H -543.5 v 72 H -661 c -0.6677,0 -1,0.2602 -1,1 v 9 c 0,0.6866 0.26282,1 1,1 h 129 c 0,0 -11.5,5.4453 -11.5,21 v 70 h 72.71875 c 60.63607,0 97.3125,-45.0492 97.3125,-96.9062 0,-55.9492 -41.96201,-96.5938 -94.65625,-96.5938 z m 36.03955,19.5 h 52.5625 c 46.26095,0 74.59375,36.3563 74.59375,77.4062 0,43.6708 -33.12647,77.1876 -72.34375,77.1876 H -521.5 v -55.5938 c 0,-8.4818 6.83168,-16 15.5,-16 h 27 c 0.64891,0 1,-0.3037 1,-1 v -9 c 0,-0.6564 -0.30423,-1 -1,-1 h -42.5 z"
       id="path3296"
       inkscape:connector-curvature="0"
       sodipodi:nodetypes="ccccsssscscsssccssscsssssscc" />
    <path
       style="fill:#efcc31;fill-opacity:1;stroke:none;stroke-opacity:1"
       d="m -261,1409.9375 c -51.19931,0 -87.625,41.6481 -87.625,87.2813 0,52.9895 42.64074,88.375 87.625,88.375 45.69067,0 87.75,-36.765 87.75,-87.7813 0,-46.6397 -36.7817,-87.875 -87.75,-87.875 z m -0.0312,19.4063 c 42.61734,0 66.6875,32.9698 66.6875,68.9062 0,36.6886 -27.61448,67.75 -66.125,67.75 -39.02404,0 -67.40625,-30.6652 -67.40625,-68.8438 0,-37.5893 28.58146,-67.8124 66.84375,-67.8124 z"
       id="path3303"
       inkscape:connector-curvature="0" />
    <path
       id="path3308"
       d="M -13.815386,1546.1109 C -25.519504,1558.33 -41.965603,1566 -61.102258,1566 c -39.024042,0 -67.406252,-30.6652 -67.406252,-68.8438 0,-37.5893 28.581462,-67.8124 66.843752,-67.8124 20.674609,0 36.984262,7.7592 48.2984,19.8522 L 0.36980585,1435.3804 C -15.13082,1419.8197 -36.682223,1409.9375 -61.633508,1409.9375 c -51.199312,0 -87.625002,41.6481 -87.625002,87.2813 0,52.9895 42.64074,88.375 87.625002,88.375 23.332878,0 45.71876,-9.5877 62.04000109,-25.765 z"
       style="fill:#efcc31;fill-opacity:1;stroke:none;stroke-opacity:1"
       inkscape:connector-curvature="0"
       sodipodi:nodetypes="csssccssscc" />
    <path
       style="fill:#efcc31;fill-opacity:1;stroke:none;stroke-opacity:1"
       d="m 83,1580.6622 v -147.3 H 24 l -5.558849,-19.5 H 171 l -6,19.5 h -60.5 v 147.3 z"
       id="path3310"
       inkscape:connector-curvature="0"
       sodipodi:nodetypes="ccccccccc" />
    <path
       id="path3312"
       d="m 258.06975,1409.9375 c -51.19931,0 -87.625,41.6481 -87.625,87.2813 0,52.9895 42.64074,88.375 87.625,88.375 45.69067,0 87.75,-36.765 87.75,-87.7813 0,-46.6397 -36.7817,-87.875 -87.75,-87.875 z m -0.0312,19.4063 c 42.61734,0 66.6875,32.9698 66.6875,68.9062 0,36.6886 -27.61448,67.75 -66.125,67.75 -39.02404,0 -67.40625,-30.6652 -67.40625,-68.8438 0,-37.5893 28.58146,-67.8124 66.84375,-67.8124 z"
       style="fill:#efcc31;fill-opacity:1;stroke:none;stroke-opacity:1"
       inkscape:connector-curvature="0" />
    <path
       style="fill:#efcc31;fill-opacity:1;stroke:none;stroke-opacity:1"
       d="m 363.21875,1413.875 5.78125,19.5 h 8.5 v 147.5 H 399 v -63.7188 h 43 l 42.3125,63.7188 h 24.90625 L 465.75,1515.625 c 18.28983,-4.8828 39.28125,-20.4153 39.28125,-50.3438 0,-24.0992 -18.91747,-51.4062 -51.03125,-51.4062 z M 399,1433.375 h 54 c 19.60832,0 30.65625,14.4791 30.65625,31.375 0,17.25 -10.73083,32.8125 -30.65625,32.8125 h -54 z"
       id="path3314"
       inkscape:connector-curvature="0" />
    <path
       style="fill:#efcc31;fill-opacity:1;stroke:none;stroke-opacity:1"
       d="m 575.75185,1413.8622 h 22.64157 l 44.93744,142.5551 45.94486,-142.5551 h 21.11421 l 45.94093,143.6654 44.8113,-143.6654 h 22.77985 l -54.59115,167 h -25.77201 l -44.40288,-133.8257 -43.60453,133.8257 h -24.99259 z"
       id="path3319"
       inkscape:connector-curvature="0"
       sodipodi:nodetypes="cccccccccccccc" />
    <path
       style="fill:#efcc31;fill-opacity:1;stroke:none;stroke-opacity:1"
       d="m 981,1351.875 v 140.5 H 876 v -78.5 h -21.5 v 78.5 H 828 c -0.68993,0 -1,0.4239 -1,1 v 9 c 0,0.7223 0.29217,1 1,1 h 37.4375 c 0,0 -10.9375,7.0423 -10.9375,17.6562 V 1642.875 H 876 v -123.5 c 0,-8.4597 6.43761,-16 16,-16 h 99.375 c 0,0 -10.375,7.3312 -10.375,19 v 58.5 h 21.5 v -77.5 h 49.375 c 0,0 -8,6.1191 -8,16.4062 0,30.6604 39.9271,72.625 90.7188,72.625 48.4324,0 92.4725,-38.8032 94.0937,-89.0312 H 1337 l 1,-1 v -9 l -1,-1 h -108.3125 c -2.1223,-51.5102 -45.101,-89.5938 -93.9375,-89.5938 -55.2969,0 -92.9412,42.9466 -94.9688,89.5938 H 1002.5 v -140.5 z m 153.125,69.5 c 33.2518,0 70.58,21.7971 74.1562,71 H 1060 c 2.9204,-42.7523 35.0336,-71 74.125,-71 z m -74.125,82 h 148.4375 c -2.8837,46.0957 -40.209,70.5938 -74.2187,70.5938 -44.5562,0 -71.1303,-32.5751 -74.2188,-70.5938 z"
       id="path3321"
       inkscape:connector-curvature="0"
       sodipodi:nodetypes="ccccccsssscscccccsccccssccccccsccccsccsccsc" />
  </g>
</svg>
