<svg xmlns="http://www.w3.org/2000/svg" xml:space="preserve" id="Layer_1" x="0" y="0" style="enable-background:new 0 0 980 350" version="1.1" viewBox="0 0 980 350"><style>.st0{fill:#fff}</style><path d="M15.1 6v57.7h59.2v168.2h69.6V63.7h59.2V6zM235.5 6h69.6v225.9h-69.6zM337.6 6v57.7h59.1v168.2h69.7V63.7h59.1V6zM630.3 108.3l13 36.9h-26.9l13.9-36.9zM602.6 6l-91.8 225.9h73.3l11.8-32.1h66.6l11.2 32.1h73.4L655.3 6h-52.7zM895.6 6v97.2L826.5 6h-59.6v225.9h69.6v-97.1l69.1 97.1h59.7V6zM965.9 320.7c0-5.3-1.2-9.5-4.2-12.5-2.4-2.4-6.1-4-11.2-4.7l-6.9-1c-2-.3-3.2-1-3.9-1.7-.9-.9-1.1-1.9-1.1-2.6 0-2.5 2-5.3 6.9-5.3 2.5 0 7.2-.3 10.8 3.4l8.8-8.8c-4.9-4.9-11-6.8-19.2-6.8-12.9 0-20.8 7.6-20.8 18 0 4.9 1.3 8.7 3.9 11.4 2.5 2.6 6.4 4.3 11.4 5l6.9 1c1.8.2 3 .8 3.8 1.5.8.9 1.1 2 1.1 3.4 0 3.3-2.6 5.1-8.1 5.1-4.5 0-9.7-1-12.7-4l-8.9 8.9c5.7 5.9 12.9 7.5 21.6 7.5 11.8.1 21.8-6.2 21.8-17.8m-55.5 17.4v-12.5h-24.7v-10h21.1v-12.5h-21.1v-9.4h24.7v-12.5h-38.6V338h38.6zm-56.2 0v-56.8h-14v28.6L822 281.3h-12.2v56.8h14v-28.5l18.2 28.5h12.2zm-61.8-56.8h-14v56.8h14v-56.8zm-29 56.8v-12.5h-21.9l21.9-33.5v-10.9h-37.6v12.5h20.8l-21.8 33.5v10.9h38.6zM693.2 318h-9.9l5.1-15.2 4.8 15.2zm20.9 20.1-20.7-56.8h-10.8l-20.7 56.8h14.6l2.8-8.5h17.5l2.6 8.5h14.7zm-61.3-24.8v-7.9h-22.3V317h8.4v.8c0 2.1-.6 4.5-2.2 6.1-1.3 1.4-3.3 2.2-6.2 2.2-2.5 0-4.5-1-5.5-2.4-1.3-1.7-2.1-3.7-2.1-14.1 0-10.4.8-12.3 2.1-14 1-1.4 2.9-2.5 5.5-2.5 4.8 0 7 2.1 8.2 6.4h14c-1.4-9.3-7.6-18.8-22.2-18.8-6.9 0-11.6 2.2-15.8 6.4-6 6-5.7 14-5.7 22.5s-.2 16.5 5.7 22.5c4.2 4.1 9.2 6.4 15.8 6.4 6.2 0 11.7-1.4 16.5-6.4 4.4-4.3 5.8-9.7 5.8-18.8m-73.9 4.7H569l5.1-15.2 4.8 15.2zm21 20.1-20.7-56.8h-10.8l-20.7 56.8h14.6l2.8-8.5h17.5l2.6 8.5h14.7zm-64.9 0v-56.8h-13.7l-12.8 25-12.8-25H482v56.8h14v-27.2l8.1 14h8.9l8.1-14v27.2H535zM430.9 275.3h5.7V344h-5.7zM385.4 320.7c0-5.3-1.2-9.5-4.2-12.5-2.4-2.4-6.1-4-11.2-4.7l-6.9-1c-2-.2-3.2-1-3.9-1.7-.9-.9-1.1-1.9-1.1-2.6 0-2.5 2-5.3 6.9-5.3 2.5 0 7.2-.2 10.8 3.4l8.8-8.8c-4.9-4.9-11-6.8-19.2-6.8-12.9 0-20.8 7.6-20.8 17.9 0 4.9 1.3 8.7 3.9 11.4 2.5 2.6 6.4 4.3 11.4 5l6.9 1c1.8.3 3 .8 3.8 1.5.8.9 1.1 2 1.1 3.4 0 3.3-2.6 5.1-8.1 5.1-4.6 0-9.8-1-12.7-4l-8.9 8.9c5.8 5.9 12.9 7.5 21.6 7.5 11.8.2 21.8-6.1 21.8-17.7m-52.9-.7h-14.2c-.9 3.2-2.6 6.1-7.3 6.1-2.5 0-4.5-1-5.5-2.4-1.3-1.7-2.2-3.7-2.2-14.1 0-10.4.9-12.4 2.2-14.1 1-1.4 2.9-2.4 5.5-2.4 4.6 0 6.4 2.9 7.3 6.1h14.2c-2.1-12.5-10.8-18.5-21.6-18.5-6.6 0-11.7 2.2-15.8 6.4-6 6-5.7 14-5.7 22.5s-.3 16.5 5.7 22.5c4.2 4.2 9.2 6.4 15.8 6.4 10.9.1 19.6-5.9 21.6-18.5m-58.8-38.7h-14v56.8h14v-56.8zm-31.5 56.8v-56.8h-13.7l-12.8 25-12.8-25h-13.7v56.8h14v-27.2l8.1 14h8.9l8.1-14v27.2h13.9zm-82.7-28.4c0 10.4-.8 12.2-2.1 13.9-1 1.4-3 2.5-5.6 2.5-2.5 0-4.6-1.2-5.6-2.5-1.3-1.7-2.1-3.5-2.1-13.9s.8-12.3 2.1-14c1-1.4 3.1-2.5 5.6-2.5 2.6 0 4.6 1.1 5.6 2.5 1.3 1.7 2.1 3.6 2.1 14m14 0c0-8.5.3-16.5-5.7-22.5-4.1-4.1-8.9-6.4-15.9-6.4s-11.7 2.2-15.9 6.4c-6 6-5.7 14-5.7 22.5s-.2 16.5 5.7 22.5c4.2 4.2 8.9 6.4 15.9 6.4s11.7-2.2 15.9-6.4c5.9-6 5.7-14 5.7-22.5M117.7 320h-14.2c-.9 3.2-2.6 6.1-7.3 6.1-2.5 0-4.5-1-5.5-2.4-1.3-1.7-2.1-3.7-2.1-14.1 0-10.4.9-12.4 2.1-14.1 1-1.4 3-2.4 5.5-2.4 4.6 0 6.4 2.9 7.3 6.1h14.2c-2.1-12.5-10.8-18.5-21.6-18.5-6.6 0-11.6 2.2-15.8 6.4-6 6-5.7 14-5.7 22.5s-.2 16.5 5.7 22.5c4.2 4.2 9.2 6.4 15.8 6.4 10.9.1 19.6-5.9 21.6-18.5" class="st0"/></svg>