<?xml version="1.0" encoding="UTF-8" standalone="no"?>
<!-- Created with Inkscape (http://www.inkscape.org/) -->

<svg
   xmlns:dc="http://purl.org/dc/elements/1.1/"
   xmlns:cc="http://creativecommons.org/ns#"
   xmlns:rdf="http://www.w3.org/1999/02/22-rdf-syntax-ns#"
   xmlns:svg="http://www.w3.org/2000/svg"
   xmlns="http://www.w3.org/2000/svg"
   xmlns:sodipodi="http://sodipodi.sourceforge.net/DTD/sodipodi-0.dtd"
   xmlns:inkscape="http://www.inkscape.org/namespaces/inkscape"
   version="1.1"
   id="svg3731"
   width="1003.2896"
   height="900.73254"
   viewBox="0 0 1003.2895 900.73254"
   sodipodi:docname="top-cow-logo.svg"
   inkscape:version="0.92.3 (2405546, 2018-03-11)">
  <metadata
     id="metadata3737">
    <rdf:RDF>
      <cc:Work
         rdf:about="">
        <dc:format>image/svg+xml</dc:format>
        <dc:type
           rdf:resource="http://purl.org/dc/dcmitype/StillImage" />
        <dc:title></dc:title>
      </cc:Work>
    </rdf:RDF>
  </metadata>
  <defs
     id="defs3735" />
  <sodipodi:namedview
     pagecolor="#ffffff"
     bordercolor="#666666"
     borderopacity="1"
     objecttolerance="10"
     gridtolerance="10"
     guidetolerance="10"
     inkscape:pageopacity="0"
     inkscape:pageshadow="2"
     inkscape:window-width="1504"
     inkscape:window-height="1110"
     id="namedview3733"
     showgrid="false"
     showborder="true"
     inkscape:zoom="0.25"
     inkscape:cx="181.55747"
     inkscape:cy="172.9343"
     inkscape:window-x="2446"
     inkscape:window-y="0"
     inkscape:window-maximized="0"
     inkscape:current-layer="layer3"
     inkscape:showpageshadow="true"
     viewbox-width="1000"
     scale-x="1.05556"
     fit-margin-top="0"
     fit-margin-left="0"
     fit-margin-right="0"
     fit-margin-bottom="0" />
  <g
     inkscape:groupmode="layer"
     id="layer4"
     inkscape:label="lightning"
     style="display:inline"
     transform="translate(-258.84633,41.760104)">
    <path
       style="fill:#ffff00;stroke:#000000;stroke-width:3;stroke-linecap:butt;stroke-linejoin:miter;stroke-miterlimit:4;stroke-dasharray:none;stroke-opacity:1"
       d="m 490.7321,404.6717 -62.9325,26.16295 23.69849,-68.94291 -191.98991,94.39875 135.0574,-35.35534 -18.03122,62.2254 115.2584,-22.27386 C 488.434,441.73588 491.08565,424.88317 490.7321,404.6717 Z"
       id="path4785"
       inkscape:connector-curvature="0"
       sodipodi:nodetypes="cccccccc" />
    <path
       style="fill:#ffff00;stroke:#000000;stroke-width:3;stroke-linecap:butt;stroke-linejoin:miter;stroke-miterlimit:4;stroke-dasharray:none;stroke-opacity:1"
       d="m 1000.6642,403.46447 125.6287,-38.64645 -9.8414,53.53375 144.8543,-62.82412 -183.7312,122.06676 -9.4827,-45.12994 -68.78124,35.83147 c 1.92434,-16.01256 2.96474,-46.16726 1.35354,-64.83147 z"
       id="path4787"
       inkscape:connector-curvature="0"
       sodipodi:nodetypes="cccccccc" />
  </g>
  <g
     inkscape:groupmode="layer"
     id="layer5"
     inkscape:label="productions"
     style="display:inline"
     transform="translate(-258.84633,41.760104)">
    <path
       style="fill:#000000;stroke:#000000;stroke-width:1px;stroke-linecap:butt;stroke-linejoin:miter;stroke-opacity:1"
       d="m 393.32812,517.63281 -62.40234,18.20703 8.48633,27.75391 25.10156,-7.42383 c -4.24264,11.66726 -0.86286,19.24815 6.54102,26.51563 6.24699,6.1319 15.73242,4.41992 15.73242,4.41992 23.33453,-2.82843 18.91601,-27.75391 18.91601,-27.75391 z m -6.00976,31.81836 c 0,0 4.77323,7.42445 -2.47461,10.78321 0,0 -7.77999,3.89075 -10.43164,-6.53907 z"
       id="path4801"
       inkscape:connector-curvature="0" />
    <path
       style="fill:#000000;stroke:#000000;stroke-width:1px;stroke-linecap:butt;stroke-linejoin:miter;stroke-opacity:1"
       d="m 412.77344,581.97852 -57.62891,30.75976 13.61133,25.98633 21.03711,-11.66797 c 6.54074,11.49049 -15.55664,21.91992 -15.55664,21.91992 l 14.84961,27.04688 c 16.61701,-10.6066 21.38867,-25.45508 21.38867,-25.45508 11.31371,5.12653 20.1543,-3.18164 20.1543,-3.18164 11.31371,-9.89949 3.0039,-26.16406 3.0039,-26.16406 z m 1.41406,31.82031 c 0,0 4.94983,6.01034 -0.70703,9.72265 -5.65685,3.71231 -7.95489,-0.52994 -9.72266,-3.53515 z"
       id="path4806"
       inkscape:connector-curvature="0" />
    <path
       style="opacity:1;fill:#000000;stroke:#000000;stroke-width:1.14458907;stroke-miterlimit:4;stroke-dasharray:none;stroke-opacity:1"
       d="m 442.64844,657.64258 a 33.407978,33.319592 0 0 0 -33.40821,33.31836 33.407978,33.319592 0 0 0 33.40821,33.32031 33.407978,33.319592 0 0 0 33.4082,-33.32031 33.407978,33.319592 0 0 0 -33.4082,-33.31836 z m 1.32617,25.5918 a 6.6669903,6.4902134 0 0 1 6.66797,6.49023 6.6669903,6.4902134 0 0 1 -6.66797,6.49023 6.6669903,6.4902134 0 0 1 -6.66602,-6.49023 6.6669903,6.4902134 0 0 1 6.66602,-6.49023 z"
       id="path4811"
       inkscape:connector-curvature="0" />
    <path
       style="fill:#000000;stroke:#000000;stroke-width:1px;stroke-linecap:butt;stroke-linejoin:miter;stroke-opacity:1"
       d="m 492.85352,699.00586 -40.30469,50.91016 29.16797,23.1582 c 0,0 27.49801,18.95788 45.43164,-7.07031 17.50201,-25.40175 -6.71875,-45.25586 -6.71875,-45.25586 z m 6.89453,38.00586 c 0,0 9.193,4.59686 3.35937,12.02148 -5.83364,7.42462 -12.19922,-0.53125 -12.19922,-0.53125 z"
       id="path4818"
       inkscape:connector-curvature="0" />
    <path
       style="fill:#000000;stroke:#000000;stroke-width:1px;stroke-linecap:butt;stroke-linejoin:miter;stroke-opacity:1"
       d="m 548.71486,742.49196 25.8094,13.43503 -15.2028,30.93592 c 0,0 -1.06066,3.18198 1.06066,4.24264 2.12132,1.06066 4.41942,-1.23743 4.41942,-1.23743 l 16.08668,-31.1127 25.45585,13.08148 -17.32412,34.64823 c 0,0 -11.84404,22.27386 -40.65864,9.72271 -28.81461,-12.55114 -14.14214,-44.19417 -14.14214,-44.19417 z"
       id="path4823"
       inkscape:connector-curvature="0"
       sodipodi:nodetypes="cccsccccscc" />
    <path
       style="fill:#000000;stroke:#000000;stroke-width:1px;stroke-linecap:butt;stroke-linejoin:miter;stroke-opacity:1"
       d="m 652.30601,815.14719 17.67767,-19.09189 c 0,0 -7.6014,-12.9047 -34.82501,-15.37957 -27.22361,-2.47487 -33.58758,28.63783 -33.58758,28.63783 0,0 -4.59619,22.27386 16.26346,33.05724 20.85965,10.78338 38.36054,5.12652 38.36054,5.12652 l -5.3033,-27.40039 c 0,0 -10.78338,2.2981 -17.67767,-3.18198 0,0 -3.71231,-3.53553 -0.70711,-6.54073 0,0 1.591,-2.47488 8.83884,-1.06067 0,0 5.65686,1.23745 10.96016,5.83364 z"
       id="path4825"
       inkscape:connector-curvature="0"
       sodipodi:nodetypes="ccscscccccc" />
    <path
       style="fill:#000000;stroke:#000000;stroke-width:1px;stroke-linecap:butt;stroke-linejoin:miter;stroke-opacity:1"
       d="m 669.8069,789.86812 57.45243,4.77297 -2.2981,29.16815 -14.67247,-1.23743 -3.18198,35.53212 -28.28427,-2.82843 3.0052,-35.7089 -14.49568,-0.88388 z"
       id="path4827"
       inkscape:connector-curvature="0"
       sodipodi:nodetypes="ccccccccc" />
    <path
       style="fill:#000000;stroke:#000000;stroke-width:1px;stroke-linecap:butt;stroke-linejoin:miter;stroke-opacity:1"
       d="m 732.38585,793.93398 28.63782,-1.41421 2.82843,65.05382 -28.63782,0.88389 z"
       id="path4829"
       inkscape:connector-curvature="0" />
    <path
       style="opacity:1;fill:#000000;stroke:#000000;stroke-width:1;stroke-miterlimit:4;stroke-dasharray:none;stroke-opacity:1"
       d="M 807.25,785.46484 A 33.306175,33.129402 0 0 0 773.94531,818.59375 33.306175,33.129402 0 0 0 807.25,851.72461 33.306175,33.129402 0 0 0 840.55664,818.59375 33.306175,33.129402 0 0 0 807.25,785.46484 Z m -0.61719,24.47266 a 6.4462576,6.7998114 0 0 1 6.44531,6.80078 6.4462576,6.7998114 0 0 1 -6.44531,6.79883 6.4462576,6.7998114 0 0 1 -6.44726,-6.79883 6.4462576,6.7998114 0 0 1 6.44726,-6.80078 z"
       id="path4831"
       inkscape:connector-curvature="0" />
    <path
       style="fill:#000000;stroke:#000000;stroke-width:1px;stroke-linecap:butt;stroke-linejoin:miter;stroke-opacity:1"
       d="m 864.26126,838.12816 -26.16295,-59.9273 19.26866,-8.48528 21.56676,13.6118 -8.3085,-19.09188 26.5165,-12.02082 26.5165,60.45763 -19.44543,9.01561 -21.21321,-13.08147 7.77818,17.32411 z"
       id="path4836"
       inkscape:connector-curvature="0" />
    <path
       id="path4840"
       style="fill:#000000;stroke:#000000;stroke-width:1px;stroke-linecap:butt;stroke-linejoin:miter;stroke-opacity:1"
       d="m 960.60457,745.67394 c 0,0 -6.8943,-0.17677 -11.13694,1.41422 0,0 -13.08147,4.59619 -14.31891,0 0,0 -2.47487,-4.41942 8.66206,-7.42462 0,0 7.95494,-2.12132 12.37437,1.94454 l -5.48008,-22.27386 m 0,0 c 0,0 -49.14393,15.20279 -39.59798,43.66384 0,0 5.83363,17.85445 29.87526,9.01561 0,0 6.71751,-3.0052 8.13173,2.65165 0,0 1.23744,4.41942 -6.54074,6.54074 0,0 -5.83363,1.76777 -15.37957,-1.59099 l 6.71751,21.92031 c 0,0 49.85103,-14.84924 44.54773,-41.89608 0,0 -3.53554,-14.14213 -17.85444,-13.96536"
       inkscape:connector-curvature="0" />
    <path
       style="fill:none;stroke:#000000;stroke-width:1px;stroke-linecap:butt;stroke-linejoin:miter;stroke-opacity:1"
       d="M 1003.5613,755.75022 Z"
       id="path4845"
       inkscape:connector-curvature="0" />
    <path
       id="path4847"
       style="fill:#000000;stroke:#000000;stroke-width:1px;stroke-linecap:butt;stroke-linejoin:miter;stroke-opacity:1"
       d="m 1003.5613,755.75022 c 0,0 4.066,5.3033 1.4143,14.49569 m 0,0 c 0,0 16.9705,-19.09189 0.8838,-37.83022 0,0 -11.84404,-10.25304 -22.62742,3.18199 0,0 -7.07107,12.72792 5.12652,20.32931 0,0 5.48008,4.5962 15.2028,-0.17677"
       inkscape:connector-curvature="0"
       sodipodi:nodetypes="ccccccc" />
    <path
       style="fill:#000000;stroke:#000000;stroke-width:1px;stroke-linecap:butt;stroke-linejoin:miter;stroke-opacity:1"
       d="m 994.54569,669.83674 17.85441,-22.80419 51.2653,39.4212 -17.3241,22.98097 z"
       id="path4852"
       inkscape:connector-curvature="0" />
    <path
       style="fill:#000000;stroke:#000000;stroke-width:1px;stroke-linecap:butt;stroke-linejoin:miter;stroke-opacity:1"
       d="m 1018.2338,640.13826 9.7227,-18.03123 26.3397,-2.82842 -19.6222,-10.07627 14.3189,-25.63262 57.4524,30.40559 -9.5459,19.62221 -25.2791,3.00521 17.501,9.01561 -13.2583,25.27906 z"
       id="path4854"
       inkscape:connector-curvature="0"
       sodipodi:nodetypes="ccccccccccc" />
    <path
       style="fill:#000000;stroke:#000000;stroke-width:1px;stroke-linecap:butt;stroke-linejoin:miter;stroke-opacity:1"
       d="m 1074.0952,519.75333 c 0,0 -16.7938,15.20279 -15.7331,36.416 0,0 -1.2375,18.73832 19.6222,30.05204 0,0 9.7227,6.0104 27.0468,0.7071 0,0 28.9914,-13.08147 20.3293,-51.79557 l -26.87,4.24264 c 0,0 2.8284,9.19239 -3.5356,17.67767 0,0 -3.3587,4.59619 -6.8942,0.88388 0,0 -5.4801,-3.35875 4.7729,-20.32932 z"
       id="path4856"
       inkscape:connector-curvature="0"
       sodipodi:nodetypes="ccccccccc" />
    <ellipse
       style="opacity:1;fill:#000000;stroke:#000000;stroke-width:1;stroke-miterlimit:4;stroke-dasharray:none;stroke-opacity:1"
       id="path4858"
       cx="1128.8075"
       cy="504.19699"
       rx="18.460123"
       ry="18.725288" />
  </g>
  <g
     inkscape:groupmode="layer"
     id="layer3"
     inkscape:label="topcow shadow"
     style="display:inline"
     transform="translate(-258.84633,41.760104)">
    <g
       id="g4735"
       style="fill:#000000">
      <path
         sodipodi:nodetypes="ccccccc"
         inkscape:connector-curvature="0"
         d="m 398.63145,105.91908 c -41.18897,37.47666 -74.95332,107.83379 -74.95332,107.83379 l 59.22019,35.00178 20.85965,-28.8146 m 0,0 69.11969,45.78517 5.48008,-9.01562 -79.72629,-150.79052"
         style="fill:#000000;stroke:#000000;stroke-width:1px;stroke-linecap:butt;stroke-linejoin:miter;stroke-opacity:1"
         id="path4667" />
    </g>
    <path
       style="fill:#000000;stroke:#000000;stroke-width:1px;stroke-linecap:butt;stroke-linejoin:miter;stroke-opacity:1"
       d="m 499.04061,93.014385 c 0,0 22.8042,-3.181981 22.8042,25.102295 0,0 14.49568,-8.30851 2.12132,-25.279071 0,0 -16.61702,-17.324117 -24.92552,0.176776 z"
       id="path4673"
       inkscape:connector-curvature="0"
       sodipodi:nodetypes="cccc" />
    <path
       style="fill:#000000;stroke:#000000;stroke-width:1px;stroke-linecap:butt;stroke-linejoin:miter;stroke-opacity:1"
       d="M 544.29545,0.91372654 534.92628,5.1563672 596.95535,149.65169 c 0,0 35.54465,-17.15169 47.29465,-20.15169 L 642.5,125 Z"
       id="path4675"
       inkscape:connector-curvature="0"
       sodipodi:nodetypes="ccc" />
    <path
       style="fill:#000000;stroke:#000000;stroke-width:1px;stroke-linecap:butt;stroke-linejoin:miter;stroke-opacity:1"
       d="m 635.689,82.231006 c 0,0 13.43503,-3.889086 25.98617,-21.566756 0,0 -11.33294,12.958295 -27.67517,17.085749 z"
       id="path4681"
       inkscape:connector-curvature="0"
       sodipodi:nodetypes="cc" />
    <path
       style="fill:#000000;stroke:#000000;stroke-width:1px;stroke-linecap:butt;stroke-linejoin:miter;stroke-opacity:1"
       d="m 453.5,47.249999 c 0,0 -41.75,32.25 7,101.750001 0,0 41.5,58.5 95,30.25 0,0 7.25,-4 12.25,-11.5 0,0 -18.5,14.5 -37.5,12.25 -19,-2.25 -40.25,-7.5 -69.75,-49 -29.5,-41.500001 -9.25,-80.750001 -7,-83.750001 z"
       id="path4742"
       inkscape:connector-curvature="0"
       sodipodi:nodetypes="ccc" />
    <path
       style="fill:#000000;stroke:#000000;stroke-width:1px;stroke-linecap:butt;stroke-linejoin:miter;stroke-opacity:1"
       d="m 611.75,19.249999 c 0,0 10.5,-3.25 14.25,5 0,0 4,7.5 1.5,12.25 0,0 12.5,-1.5 6,-19 0,0 -2.57452,-7.414214 -11.75,-7.25 0,0 -5.30806,0.265165 -12.05806,4.015165 z"
       id="path4749"
       inkscape:connector-curvature="0"
       sodipodi:nodetypes="ccccccc" />
    <path
       id="path4764"
       style="fill:#000000;stroke:#000000;stroke-width:1px;stroke-linecap:butt;stroke-linejoin:miter;stroke-opacity:1"
       d="m 863,50.5 c 0,0 27,-37 42.5,-43.5000005 C 905.5,6.9999995 891.5,-26.5 860,-38 828.5,-49.500001 776,99 776,99 m 0,0 c 0,0 23.5,46.5 74.5,31.5 0,0 -0.5,-37 7.5,-65.5 0,0 -43,6 -30.5,-22.5 0,0 10.5,-19 35.5,8"
       inkscape:connector-curvature="0" />
    <path
       style="fill:#000000;stroke:#000000;stroke-width:1px;stroke-linecap:butt;stroke-linejoin:miter;stroke-opacity:1"
       d="m 940.5,71 c 0,0 -17.5,-12 -24.5,23 0,0 -11.5,-5.5 1,-24 0,0 14.5,-21 23.5,1 z"
       id="path4767"
       inkscape:connector-curvature="0" />
    <path
       style="fill:#000000;stroke:#000000;stroke-width:1px;stroke-linecap:butt;stroke-linejoin:miter;stroke-opacity:1"
       d="m 866.5,139.5 c 0,0 28.5,53 85.5,16 0,0 39.5,-28.5 47,-85 0,0 2.5,-28.5 -12,-42 0,0 29.5,41 -27.5,109.5 0,0 -48,51 -93,1.5 z"
       id="path4769"
       inkscape:connector-curvature="0" />
    <path
       style="fill:#000000;stroke:#000000;stroke-width:1px;stroke-linecap:butt;stroke-linejoin:miter;stroke-opacity:1"
       d="m 1062.7815,92.130502 6.364,5.656854 -12.728,22.980974 51.6188,22.27386 4.9498,6.71751 -16.2635,22.27387 55.5079,42.77996 3.8891,8.13173 -150.7021,49.49747 c 0,0 -14.40735,-27.22361 -20.77131,-31.46625 l 36.06241,-50.55814 -51.70714,30.67076 c 0,0 -13.78858,-16.44023 -23.86486,-24.39518 l 2.2981,-3.71231 z"
       id="path4782"
       inkscape:connector-curvature="0"
       sodipodi:nodetypes="ccccccccccccccc" />
    <ellipse
       style="opacity:1;fill:none;stroke:#000000;stroke-width:6;stroke-miterlimit:4;stroke-dasharray:none;stroke-opacity:1"
       id="path4792"
       cy="310.5"
       cx="1106.875"
       rx="21.174805"
       ry="21.799805" />
    <path
       style="fill:#000000;stroke:#000000;stroke-width:1px;stroke-linecap:butt;stroke-linejoin:miter;stroke-opacity:1"
       d="m 1102.6914,296.97656 c -1.0897,0.004 -2.0564,0.017 -2.6973,0.0391 -2.5632,0.0884 -3.0058,2.5625 -3.0058,2.5625 l 0.088,22.09766 c 0,0 0.5304,2.03125 3.0937,2.03125 2.5632,0 2.5645,-2.03125 2.5645,-2.03125 v -8.57422 h 1.8554 l 6.8946,9.72266 c 0,0 2.2981,2.12132 4.5078,0 2.2097,-2.12132 0.5293,-3.88867 0.5293,-3.88867 l -4.7715,-6.36524 c 0,0 6.4522,0.17807 6.2754,-7.51172 -0.2031,-8.8365 -7.6914,-8.04297 -7.6914,-8.04297 0,0 -4.3736,-0.0515 -7.6426,-0.0391 z m 0.041,5.78321 6.7188,0.0879 c 0,0 1.6797,-0.44724 1.6797,2.38672 0,2.9168 -1.5039,2.74023 -1.5039,2.74023 h -6.7168 z"
       id="path4796"
       inkscape:connector-curvature="0" />
  </g>
  <g
     inkscape:label="topcow"
     id="g4731"
     inkscape:groupmode="layer"
     style="display:inline"
     transform="translate(-258.84633,41.760104)">
    <path
       style="display:inline;opacity:1;fill:#ff0000;stroke:#000000;stroke-width:1px;stroke-linecap:butt;stroke-linejoin:miter;stroke-opacity:1"
       d="m 498.67773,26.484375 c -10.90812,-0.173569 -22.71679,2.833984 -35.07617,10.818359 0,0 -46.75,32.750009 4.25,103.999996 0,0 46.5,62.75 96.75,29.5 0,0 47.75,-29.5 0.5,-102.499996 0,0 -27.46623,-41.198471 -66.42383,-41.818359 z M 509.8418,84.611328 C 517.7859,84.496887 524.5,93.5 524.5,93.5 535,108 525.25,117 525.25,117 514,124.5 503.75,109 503.75,109 493.25,93.249999 503,87.25 503,87.25 c 2.29688,-1.859375 4.61745,-2.606628 6.8418,-2.638672 z"
       id="path4683"
       inkscape:connector-curvature="0" />
    <path
       style="fill:#ff0000;stroke:#000000;stroke-width:1px;stroke-linecap:butt;stroke-linejoin:miter;stroke-opacity:1"
       d="m 623.56836,-29.962891 c -7.98794,0.101747 -17.20508,1.56836 -27.81836,4.962891 0,0 -41.5,15 -52.75,23.25 0,0 53.25,124 60.75,144 0,0 37.75,-18 47.5,-20.25 L 634,77.75 c 0,0 56.75,-15.75 38,-77 0,0 -9.9443,-31.203124 -48.43164,-30.712891 z m -0.81445,41.080079 C 632.28125,11.046875 634.25,18.5 634.25,18.5 c 7.5,19 -14.5,20.5 -14.5,20.5 L 610.5,14.25 c 5.0625,-2.25 9.07812,-3.109375 12.25391,-3.132812 z"
       id="path4689"
       inkscape:connector-curvature="0" />
    <g
       style="fill:#ff0000"
       id="g4699">
      <path
         id="path4697"
         style="fill:#ff0000;stroke:#000000;stroke-width:1px;stroke-linecap:butt;stroke-linejoin:miter;stroke-opacity:1"
         d="m 330.5,206.5 c 0,0 21,-46.25 76,-110 m 0,0 54.75,42.5 -19.5,24.75 L 510,216 c 0,0 -24.25,28.75 -29.75,42 l -71,-46.25 -18.75,29.25 -60,-34.5"
         inkscape:connector-curvature="0" />
    </g>
    <path
       id="path4703"
       style="fill:#ff0000;stroke:#000000;stroke-width:1px;stroke-linecap:butt;stroke-linejoin:miter;stroke-opacity:1"
       d="m 846.25,124 c 0,0 2.35355,-47.250001 7.10355,-67.000001 0,0 -14.35355,3 -26.35355,-4.75 0,0 -9.5,-6.25 -3,-18.5 0,0 5.75,-9.25 21.5,-1.5 0,0 13.20711,7.353553 13.95711,10.853553 0,0 26.23223,-35.7573588 42.29289,-43.85355295 m 0,0 c 0,0 -19.75,-41.25000005 -64.5,-40.50000005 -44.75,0.75 -65.5,39 -70.5,50.0000001 0,0 -17.25,35.2499999 1.25,74.4999999 0,0 18.5,57.750001 78.25,40.750001"
       inkscape:connector-curvature="0"
       sodipodi:nodetypes="ccccccccsccc" />
    <path
       style="fill:#ff0000;stroke:#000000;stroke-width:1px;stroke-linecap:butt;stroke-linejoin:miter;stroke-opacity:1"
       d="M 941.03711,0.17382812 C 922.10744,0.37226865 896.1875,10.109375 871.75,50.75 c 0,0 -37.75,71.75 10.5,102.25 0,0 46.25,34.5 95.5,-41.25 0,0 42,-69.5 -8.75,-104.5 0,0 -11.26024,-7.25126646 -27.96289,-7.07617188 z M 930.28125,60.933594 C 932.55762,60.83252 934,61.5 934,61.5 c 13.75,6 2.75,24 2.75,24 C 927.25,102 917,95 917,95 906.75,86 914.75,74.5 914.75,74.5 920.375,63.40625 926.4873,61.102051 930.28125,60.933594 Z"
       id="path4705"
       inkscape:connector-curvature="0" />
    <path
       sodipodi:nodetypes="cccccccccccccc"
       inkscape:connector-curvature="0"
       id="path4711"
       d="m 1024.2442,54.653842 -83.08507,133.996738 24.04163,25.45584 65.76094,-38.53732 c 0,0 3.8891,3.53554 -49.49749,57.98276 0,0 15.55636,19.09188 20.85969,31.46625 l 150.2602,-50.20458 c 0,0 -11.6673,-23.33453 -28.9914,-50.91169 l -40.6587,13.08147 25.4559,-34.29467 c 0,0 -10.2531,-14.84925 -26.5165,-33.23402 l -37.4767,17.32411 20.1526,-36.062442 c 0,0 -20.8596,-19.445437 -40.3051,-36.062446 z"
       style="fill:#ff0000;stroke:#000000;stroke-width:1px;stroke-linecap:butt;stroke-linejoin:miter;stroke-opacity:1" />
  </g>
  <g
     inkscape:groupmode="layer"
     id="layer6"
     inkscape:label="earth"
     style="display:inline"
     transform="translate(-258.84633,41.760104)">
    <path
       style="opacity:1;fill:none;stroke:#000000;stroke-width:3;stroke-miterlimit:4;stroke-dasharray:none;stroke-opacity:1"
       id="path4864"
       sodipodi:type="arc"
       sodipodi:cx="745.25562"
       sodipodi:cy="425.49405"
       sodipodi:rx="254.7683"
       sodipodi:ry="254.47913"
       sodipodi:start="1.8369444"
       sodipodi:end="1.5774735"
       d="M 678.2472,671.01326 A 254.7683,254.47913 0 0 1 495.63073,374.61757 254.7683,254.47913 0 0 1 779.90154,173.37898 254.7683,254.47913 0 0 1 999.37215,443.6852 254.7683,254.47913 0 0 1 743.5545,679.9675"
       sodipodi:open="true" />
    <path
       style="fill:none;stroke:#000000;stroke-width:3;stroke-linecap:butt;stroke-linejoin:miter;stroke-miterlimit:4;stroke-dasharray:none;stroke-opacity:1"
       d="m 584,621.5 c 0,0 -41,63.5 -19.5,82 21.5,18.5 58,-19 71,-49.5"
       id="path4915"
       inkscape:connector-curvature="0" />
    <path
       style="fill:none;stroke:#000000;stroke-width:3;stroke-linecap:butt;stroke-linejoin:miter;stroke-miterlimit:4;stroke-dasharray:none;stroke-opacity:1"
       d="m 678.2472,671.01326 c 0,0 -22.2472,77.48674 12.7528,83.48674 35,6 52.5545,-74.5325 52.5545,-74.5325"
       id="path4917"
       inkscape:connector-curvature="0" />
    <path
       style="fill:none;stroke:#000000;stroke-width:3;stroke-linecap:butt;stroke-linejoin:miter;stroke-miterlimit:4;stroke-dasharray:none;stroke-opacity:1"
       d="m 846.5,659 c 0,0 27.5,62.5 -1,72.5 -28.5,10 -42.5,-27 -49,-56.5"
       id="path4919"
       inkscape:connector-curvature="0" />
    <path
       style="fill:none;stroke:#000000;stroke-width:3;stroke-linecap:butt;stroke-linejoin:miter;stroke-miterlimit:4;stroke-dasharray:none;stroke-opacity:1"
       d="m 886,637 c -1,1 30,60 57,36.5 27,-23.5 -20.5,-65 -21,-65.5"
       id="path4921"
       inkscape:connector-curvature="0"
       sodipodi:nodetypes="csc" />
    <path
       style="display:inline;opacity:1;fill:#000000;stroke:#000000;stroke-width:1px;stroke-linecap:butt;stroke-linejoin:miter;stroke-opacity:1"
       d="m 491.5,453 c 10.5,105 77,156 77,156 l 8.5,-6 c 0,0 5.00875,-0.64817 -6.5,-21.5 -8.58555,-15.55551 -3.80127,-6.13273 -10,-26.5 C 557,543.5 547,537.5 547,537.5 l -13.5,-9 c 0,0 1.5,-12.5 -9.5,-13.5 0,0 3,0 -6.5,-13 0,0 1.5,-3 -6.5,-10 0,0 -7.5,-8.5 -8,-22 0,0 2.5,-13.5 -11.5,-17 z"
       id="path4923"
       inkscape:connector-curvature="0"
       sodipodi:nodetypes="cccssccccccc" />
    <path
       style="fill:#000000;stroke:#000000;stroke-width:1px;stroke-linecap:butt;stroke-linejoin:miter;stroke-opacity:1"
       d="m 759.35095,678.7045 c 0,0 -5.85095,-0.2045 -4.35095,-8.7045 1.5,-8.5 16.23391,-18.73099 25.5,-24.5 5.95755,-3.70913 13.5,-58 13.5,-58 0,0 2.15385,-9.14161 -8.5,-13.5 -11,-4.5 -5.5,-6.5 -12.5,-11.5 -7,-5 -4.5,-8.5 -4.5,-8.5 l -7.5,-7.5 c -6.26498,-6.26498 -18,-39.5 -12,-50 0,0 18.5,-11 24,-19.5 5.5,-8.5 -16,-1.5 -16,-1.5 0,0 -7,1.5 -7.5,-4 C 749,466 749,464 749,464 c -7.22882,-7.30931 -8.01203,1.388 -20,0.5 -13.5,-1 -6.5,-5.5 -17.5,-8.5 0,0 -35,10 -61,-69.5 0,0 1,-12 -5.5,-1 0,0 8,24 6,31.5 0,0 -4,0.5 -8.5,-8 -4.5,-8.5 -6,-31.5 -6,-31.5 0,0 3,-9.5 -9.5,-12 -12.5,-2.5 3.5,-45.5 3.5,-45.5 0,0 15.5,-21.5 5.5,-28 -10,-6.5 3.5,-11 -57.5,-1.5 0,0 -23.5,-3.5 3.5,-23.5 0,0 32,-32 35.5,-33 3.5,-1 -4,-3 18.5,-3 0,0 10.5,1 23.5,-6 13,-7 39.5,12 39.5,12 0,0 8.5,5 25.5,4.5 17,-0.5 7.5,8 37,7.5 29.5,-0.5 24.5,-1 24.5,-1 0,0 16.5,-1.5 3.5,9 -13,10.5 -13,14.5 -37.5,23 0,0 -15.5,10 10,27.5 25.5,17.5 21.5,-13 21.5,-13 0,0 -6.5,-20 8,-23.5 14.5,-3.5 19,-0.5 25.5,9 6.5,9.5 -2.5,11 20,13.5 0,0 6,-2 19,14 0,0 4,5.5 12.5,4 8.5,-1.5 -0.5,4 -0.5,4 0,0 -9.5,7 -24,7 -14.5,0 -9.5,15.5 -9.5,17 0,1.5 3.5,10.5 -8.5,7.5 -12,-3 -23,7.5 -23,7.5 0,0 0,22.5 -7.5,25.5 -7.5,3 -8.5,4 -8,10.5 0.5,6.5 -5,6.5 -9,7 -4,0.5 -8.65585,3.50434 -10,24.5 -1.21963,19.05068 -14,2.5 -14,2.5 0,0 1.5,5 -1,-17 -1.86643,-16.42457 -17.5,-4 -17.5,-4 0,0 -6,7 -21,1 -15,-6 -2,31 -2,31 0,0 4.5,11 10.5,7.5 6,-3.5 4.5,-11 4.5,-11 0,0 3.5,-14.5 11.5,5 0,0 4,15 11.5,15 7.5,0 7,13.5 20,15 0,0 7.5,5 15,-5.5 0,0 19.5,-12 27.5,-5 8,7 21,5.5 21,5.5 0,0 4,1 6,5.5 2,4.5 7.5,2.5 15.5,1.5 8,-1 9.5,7 12.5,9 3,2 11,12.5 11,15 0,0 -3,10 32.5,9.5 0,0 37,4.5 9.5,34 0,0 -14,21.5 -13,37 0,0 3,8.5 -20,15.5 0,0 -14,3.5 -21,39 0,0 -5,7.5 -15.5,9 0,0 -4.5,-3 -5,9.5 0,0 -23.08839,12.46967 -23.08839,20.96967 0,0 -34.56066,11.73483 -64.56066,11.23483 z"
       id="path4926"
       inkscape:connector-curvature="0"
       sodipodi:nodetypes="csscsscscscsssccccscscsccscscsscscscssccscssscsssscscscsccsccscssscccccccccc" />
    <path
       style="fill:none;stroke:#000000;stroke-width:1px;stroke-linecap:butt;stroke-linejoin:miter;stroke-opacity:1"
       d="M 854.5,302.5 Z"
       id="path4932"
       inkscape:connector-curvature="0" />
    <path
       style="fill:#000000;stroke:#000000;stroke-width:1px;stroke-linecap:butt;stroke-linejoin:miter;stroke-opacity:1"
       d="m 526.75,294.5 c 0,0 5.75,2.75 10,0.25 4.25,-2.5 16.5,-13.25 38.25,-43 0,0 8.25,-10.5 20,-13.5 0,0 4.75,-0.5 6.25,-8 0,0 0,-12.75 3,-16.75 3,-4 -44.5,27.75 -77.5,81 z"
       id="path4934"
       inkscape:connector-curvature="0" />
    <path
       style="fill:#000000;stroke:#000000;stroke-width:1px;stroke-linecap:butt;stroke-linejoin:miter;stroke-opacity:1"
       d="m 627.93934,198.43934 c 0,0 5.81066,6.56066 18.31066,1.56066 12.5,-5 16.75,-9.75 26.25,-4.25 0,0 2.5,7.25 23.5,-3.25 21,-10.5 54.25,-2.5 54.25,-2.5 0,0 19.75,2.5 5.25,12 0,0 -29.75,9 -49.75,17.75 0,0 -9.75,6.5 7.5,5 0,0 18,0.25 25.25,6 0,0 -3.5,4.25 22.25,2.75 0,0 -0.25,6.75 40.25,4 0,0 5,0.5 5.5,-1.75 0.5,-2.25 8.25,-3 9.5,-0.25 0,0 7.25,22.75 14.25,30.25 0,0 4.75,8 7,-13.75 0,0 16,-100.75 53.75,8 0,0 -0.25,11.5 15,6.25 l 30.5,-7.75 c 0,0 -108.42093,-144.67066 -308.56066,-60.06066 z"
       id="path4936"
       inkscape:connector-curvature="0"
       sodipodi:nodetypes="cscscccccccsccccccc" />
    <path
       style="fill:#000000;stroke:#000000;stroke-width:1px;stroke-linecap:butt;stroke-linejoin:miter;stroke-opacity:1"
       d="m 963.07944,293.65593 c 0,0 -16.97057,9.19239 -15.2028,33.94113 1.76777,24.74874 -3.53553,21.92031 -3.53553,21.92031 0,0 -7.42462,3.18198 3.18198,10.6066 10.6066,7.42462 9.54594,-0.7071 14.84924,8.13173 5.3033,8.83883 -7.42462,12.72792 -7.42462,12.72792 0,0 -10.96016,0.70711 -4.94975,43.48707 0,0 0,10.96015 18.73833,18.38478 18.73833,7.42462 3.53553,30.05203 3.53553,30.05203 0,0 -6.71751,12.02082 0.70711,24.04163 7.42462,12.02082 -2.12132,14.49569 9.54594,21.21321 0,0 50.55813,-105.35892 -19.44543,-224.50641 z"
       id="path4938"
       inkscape:connector-curvature="0"
       sodipodi:nodetypes="cscssccscscc" />
    <path
       style="fill:#000000;stroke:#000000;stroke-width:1px;stroke-linecap:butt;stroke-linejoin:miter;stroke-opacity:1"
       d="m 857.25,342.25 c 0,0 -21,-4.5 -4.5,-13.5 0,0 10.25,-8.75 11.25,5 0,0 15,8.75 -6.75,8.5 z"
       id="path4940"
       inkscape:connector-curvature="0" />
    <path
       style="fill:#000000;stroke:#000000;stroke-width:1px;stroke-linecap:butt;stroke-linejoin:miter;stroke-opacity:1"
       d="m 807.25,443.75 c 0,0 2.75,-11.25 -15.25,-5 0,0 -3.25,4.75 6.5,3.25 0,0 4.5,4 8.75,1.75 z"
       id="path4942"
       inkscape:connector-curvature="0" />
    <path
       style="fill:#000000;stroke:#000000;stroke-width:1px;stroke-linecap:butt;stroke-linejoin:miter;stroke-opacity:1"
       d="m 780.75,447.5 c 0,0 3.75,2.25 2.75,-6.25 -1,-8.5 -20.25,-4.25 -20.25,-4.25 0,0 -8.5,3.5 0.5,5 9,1.5 8.25,-3.5 17,5.5 z"
       id="path4944"
       inkscape:connector-curvature="0" />
  </g>
</svg>
